<mxfile host="app.diagrams.net" modified="2022-12-03T13:48:01.606Z" agent="5.0 (Windows NT 10.0; Win64; x64) AppleWebKit/537.36 (KHTML, like Gecko) Chrome/108.0.0.0 Safari/537.36" version="20.6.0" etag="6RScFeMcu2BFFGlJnkN5" type="github">
  <diagram id="hsv8w7iXHWs8ini813C6" name="Trang-1">
    <mxGraphModel dx="1153" dy="609" grid="1" gridSize="10" guides="1" tooltips="1" connect="1" arrows="1" fold="1" page="1" pageScale="1" pageWidth="827" pageHeight="1169" math="0" shadow="0">
      <root>
        <mxCell id="0" />
        <mxCell id="1" parent="0" />
        <mxCell id="mC1OC9uF_GtwQBNfBIP0-1" value="0.0 Cửa hàng mỹ phẩm trục tuyến C13 Cosmetics" style="rounded=0;whiteSpace=wrap;html=1;" vertex="1" parent="1">
          <mxGeometry x="264" y="40" width="300" height="40" as="geometry" />
        </mxCell>
        <mxCell id="mC1OC9uF_GtwQBNfBIP0-3" value="1.0 Quản lý thành viên" style="rounded=0;whiteSpace=wrap;html=1;" vertex="1" parent="1">
          <mxGeometry x="20" y="120" width="180" height="40" as="geometry" />
        </mxCell>
        <mxCell id="mC1OC9uF_GtwQBNfBIP0-16" value="" style="endArrow=none;html=1;rounded=0;entryX=0.5;entryY=1;entryDx=0;entryDy=0;" edge="1" parent="1">
          <mxGeometry width="50" height="50" relative="1" as="geometry">
            <mxPoint x="40" y="430" as="sourcePoint" />
            <mxPoint x="40" y="160" as="targetPoint" />
          </mxGeometry>
        </mxCell>
        <mxCell id="mC1OC9uF_GtwQBNfBIP0-17" value="1.1 Đăng ký" style="rounded=0;whiteSpace=wrap;html=1;" vertex="1" parent="1">
          <mxGeometry x="70" y="170" width="120" height="40" as="geometry" />
        </mxCell>
        <mxCell id="mC1OC9uF_GtwQBNfBIP0-18" value="1.2 Đăng nhập" style="rounded=0;whiteSpace=wrap;html=1;" vertex="1" parent="1">
          <mxGeometry x="70" y="250" width="120" height="40" as="geometry" />
        </mxCell>
        <mxCell id="mC1OC9uF_GtwQBNfBIP0-19" value="" style="endArrow=none;html=1;rounded=0;entryX=0;entryY=0.5;entryDx=0;entryDy=0;" edge="1" parent="1" target="mC1OC9uF_GtwQBNfBIP0-17">
          <mxGeometry width="50" height="50" relative="1" as="geometry">
            <mxPoint x="40" y="190" as="sourcePoint" />
            <mxPoint x="100" y="200" as="targetPoint" />
          </mxGeometry>
        </mxCell>
        <mxCell id="mC1OC9uF_GtwQBNfBIP0-20" value="" style="endArrow=none;html=1;rounded=0;entryX=0;entryY=0.5;entryDx=0;entryDy=0;" edge="1" parent="1" target="mC1OC9uF_GtwQBNfBIP0-18">
          <mxGeometry width="50" height="50" relative="1" as="geometry">
            <mxPoint x="40" y="270" as="sourcePoint" />
            <mxPoint x="100" y="200" as="targetPoint" />
          </mxGeometry>
        </mxCell>
        <mxCell id="mC1OC9uF_GtwQBNfBIP0-21" value="" style="endArrow=none;html=1;rounded=0;" edge="1" parent="1" target="mC1OC9uF_GtwQBNfBIP0-22">
          <mxGeometry width="50" height="50" relative="1" as="geometry">
            <mxPoint x="40" y="350" as="sourcePoint" />
            <mxPoint x="350" y="350" as="targetPoint" />
          </mxGeometry>
        </mxCell>
        <mxCell id="mC1OC9uF_GtwQBNfBIP0-22" value="1.3 Phân Quyền" style="rounded=0;whiteSpace=wrap;html=1;" vertex="1" parent="1">
          <mxGeometry x="70" y="330" width="120" height="40" as="geometry" />
        </mxCell>
        <mxCell id="mC1OC9uF_GtwQBNfBIP0-23" value="1.4 Quản lý thông tin thành viên" style="rounded=0;whiteSpace=wrap;html=1;" vertex="1" parent="1">
          <mxGeometry x="70" y="410" width="120" height="40" as="geometry" />
        </mxCell>
        <mxCell id="mC1OC9uF_GtwQBNfBIP0-24" value="" style="endArrow=none;html=1;rounded=0;entryX=0;entryY=0.5;entryDx=0;entryDy=0;" edge="1" parent="1">
          <mxGeometry width="50" height="50" relative="1" as="geometry">
            <mxPoint x="40" y="430" as="sourcePoint" />
            <mxPoint x="70" y="430" as="targetPoint" />
          </mxGeometry>
        </mxCell>
        <mxCell id="mC1OC9uF_GtwQBNfBIP0-26" value="" style="endArrow=none;html=1;rounded=0;" edge="1" parent="1">
          <mxGeometry width="50" height="50" relative="1" as="geometry">
            <mxPoint x="80" y="100" as="sourcePoint" />
            <mxPoint x="720" y="100" as="targetPoint" />
            <Array as="points">
              <mxPoint x="400" y="100" />
            </Array>
          </mxGeometry>
        </mxCell>
        <mxCell id="mC1OC9uF_GtwQBNfBIP0-29" value="" style="endArrow=none;html=1;rounded=0;" edge="1" parent="1">
          <mxGeometry width="50" height="50" relative="1" as="geometry">
            <mxPoint x="80" y="120" as="sourcePoint" />
            <mxPoint x="80" y="100" as="targetPoint" />
          </mxGeometry>
        </mxCell>
        <mxCell id="mC1OC9uF_GtwQBNfBIP0-30" value="" style="endArrow=none;html=1;rounded=0;entryX=0.5;entryY=1;entryDx=0;entryDy=0;" edge="1" parent="1" target="mC1OC9uF_GtwQBNfBIP0-1">
          <mxGeometry width="50" height="50" relative="1" as="geometry">
            <mxPoint x="414" y="100" as="sourcePoint" />
            <mxPoint x="400" y="260" as="targetPoint" />
          </mxGeometry>
        </mxCell>
        <mxCell id="mC1OC9uF_GtwQBNfBIP0-31" value="2.0 Quản lý sản phẩm" style="rounded=0;whiteSpace=wrap;html=1;" vertex="1" parent="1">
          <mxGeometry x="230" y="120" width="200" height="40" as="geometry" />
        </mxCell>
        <mxCell id="mC1OC9uF_GtwQBNfBIP0-32" value="" style="endArrow=none;html=1;rounded=0;" edge="1" parent="1">
          <mxGeometry width="50" height="50" relative="1" as="geometry">
            <mxPoint x="320" y="120" as="sourcePoint" />
            <mxPoint x="320" y="100" as="targetPoint" />
          </mxGeometry>
        </mxCell>
        <mxCell id="mC1OC9uF_GtwQBNfBIP0-33" value="2.1 Thêm, Sửa, Xoá Danh mục sản phẩm" style="rounded=0;whiteSpace=wrap;html=1;" vertex="1" parent="1">
          <mxGeometry x="270" y="200" width="160" height="40" as="geometry" />
        </mxCell>
        <mxCell id="mC1OC9uF_GtwQBNfBIP0-34" value="" style="endArrow=none;html=1;rounded=0;" edge="1" parent="1">
          <mxGeometry width="50" height="50" relative="1" as="geometry">
            <mxPoint x="241" y="300" as="sourcePoint" />
            <mxPoint x="241" y="160" as="targetPoint" />
          </mxGeometry>
        </mxCell>
        <mxCell id="mC1OC9uF_GtwQBNfBIP0-36" value="" style="endArrow=none;html=1;rounded=0;entryX=0;entryY=0.5;entryDx=0;entryDy=0;" edge="1" parent="1" target="mC1OC9uF_GtwQBNfBIP0-33">
          <mxGeometry width="50" height="50" relative="1" as="geometry">
            <mxPoint x="240" y="220" as="sourcePoint" />
            <mxPoint x="280" y="180" as="targetPoint" />
          </mxGeometry>
        </mxCell>
        <mxCell id="mC1OC9uF_GtwQBNfBIP0-37" value="2.2 Thêm, Sửa, Xoá Sản phẩm" style="rounded=0;whiteSpace=wrap;html=1;" vertex="1" parent="1">
          <mxGeometry x="270" y="280" width="160" height="40" as="geometry" />
        </mxCell>
        <mxCell id="mC1OC9uF_GtwQBNfBIP0-38" value="" style="endArrow=none;html=1;rounded=0;" edge="1" parent="1" target="mC1OC9uF_GtwQBNfBIP0-37">
          <mxGeometry width="50" height="50" relative="1" as="geometry">
            <mxPoint x="240" y="300" as="sourcePoint" />
            <mxPoint x="280" y="180" as="targetPoint" />
          </mxGeometry>
        </mxCell>
        <mxCell id="mC1OC9uF_GtwQBNfBIP0-39" value="3.0 Quản lý tin" style="rounded=0;whiteSpace=wrap;html=1;" vertex="1" parent="1">
          <mxGeometry x="460" y="120" width="200" height="40" as="geometry" />
        </mxCell>
        <mxCell id="mC1OC9uF_GtwQBNfBIP0-40" value="3.1 Thêm, Sửa, Xoá Danh mục tin tức" style="rounded=0;whiteSpace=wrap;html=1;" vertex="1" parent="1">
          <mxGeometry x="500" y="200" width="160" height="40" as="geometry" />
        </mxCell>
        <mxCell id="mC1OC9uF_GtwQBNfBIP0-41" value="" style="endArrow=none;html=1;rounded=0;" edge="1" parent="1">
          <mxGeometry width="50" height="50" relative="1" as="geometry">
            <mxPoint x="471" y="300" as="sourcePoint" />
            <mxPoint x="471" y="160" as="targetPoint" />
          </mxGeometry>
        </mxCell>
        <mxCell id="mC1OC9uF_GtwQBNfBIP0-42" value="" style="endArrow=none;html=1;rounded=0;entryX=0;entryY=0.5;entryDx=0;entryDy=0;" edge="1" target="mC1OC9uF_GtwQBNfBIP0-40" parent="1">
          <mxGeometry width="50" height="50" relative="1" as="geometry">
            <mxPoint x="470" y="220" as="sourcePoint" />
            <mxPoint x="510" y="180" as="targetPoint" />
          </mxGeometry>
        </mxCell>
        <mxCell id="mC1OC9uF_GtwQBNfBIP0-43" value="3.2 Thêm, Sửa, Xoá Tin tức" style="rounded=0;whiteSpace=wrap;html=1;" vertex="1" parent="1">
          <mxGeometry x="500" y="280" width="160" height="40" as="geometry" />
        </mxCell>
        <mxCell id="mC1OC9uF_GtwQBNfBIP0-44" value="" style="endArrow=none;html=1;rounded=0;" edge="1" target="mC1OC9uF_GtwQBNfBIP0-43" parent="1">
          <mxGeometry width="50" height="50" relative="1" as="geometry">
            <mxPoint x="470" y="300" as="sourcePoint" />
            <mxPoint x="510" y="180" as="targetPoint" />
          </mxGeometry>
        </mxCell>
        <mxCell id="mC1OC9uF_GtwQBNfBIP0-45" value="" style="endArrow=none;html=1;rounded=0;" edge="1" parent="1" source="mC1OC9uF_GtwQBNfBIP0-39">
          <mxGeometry width="50" height="50" relative="1" as="geometry">
            <mxPoint x="510" y="140" as="sourcePoint" />
            <mxPoint x="560" y="100" as="targetPoint" />
          </mxGeometry>
        </mxCell>
        <mxCell id="mC1OC9uF_GtwQBNfBIP0-49" value="4.0 Quản lý đơn hàng" style="rounded=0;whiteSpace=wrap;html=1;" vertex="1" parent="1">
          <mxGeometry x="670" y="120" width="200" height="40" as="geometry" />
        </mxCell>
        <mxCell id="mC1OC9uF_GtwQBNfBIP0-50" value="4.1 Thêm, Sửa, Xoá, Duyệt đơn hàng" style="rounded=0;whiteSpace=wrap;html=1;" vertex="1" parent="1">
          <mxGeometry x="700" y="200" width="170" height="40" as="geometry" />
        </mxCell>
        <mxCell id="mC1OC9uF_GtwQBNfBIP0-52" value="" style="endArrow=none;html=1;rounded=0;exitX=0.25;exitY=0;exitDx=0;exitDy=0;" edge="1" parent="1" source="mC1OC9uF_GtwQBNfBIP0-49">
          <mxGeometry width="50" height="50" relative="1" as="geometry">
            <mxPoint x="410" y="330" as="sourcePoint" />
            <mxPoint x="720" y="100" as="targetPoint" />
          </mxGeometry>
        </mxCell>
        <mxCell id="mC1OC9uF_GtwQBNfBIP0-54" value="" style="endArrow=none;html=1;rounded=0;entryX=0.5;entryY=1;entryDx=0;entryDy=0;" edge="1" parent="1" target="mC1OC9uF_GtwQBNfBIP0-49">
          <mxGeometry width="50" height="50" relative="1" as="geometry">
            <mxPoint x="770" y="200" as="sourcePoint" />
            <mxPoint x="580" y="240" as="targetPoint" />
          </mxGeometry>
        </mxCell>
      </root>
    </mxGraphModel>
  </diagram>
</mxfile>
